:SAMPLES-PER-SECOND 30
:FULLY-SPECIFIED
:DEGREES
361
root  19.9403 31.1364 25.7098 -168.518 7.41144 167.474
RightUpLeg  -49.325 -20.3199 -38.1484
RightLeg  46.9618 -1.73411 -2.31182
RightFoot  2.66675 -4.77865 37.7257
RightToes  -1.74624e-010 0 -3.6325e-017
Spine  32.2806 -5.43766 26.3857
Spine1  -5.42303 5.2641 -13.9222
HEad  -34.902 -1.46034 -14.5342
LeftShoulder1  1.54912 -3.35158 -15.8308
LeftArm  22.1292 29.4927 -54.42
LeftForeArm  66.823 -79.1549 -72.791
LeftHand  -2.10094 -4.99536 23.4519
RightShoulder  0.152531 -5.39466 -18.5032
RightArm  -64.2499 32.7007 -4.65441
RightForeArm  0.557713 39.0978 9.35666
RightHand  -2.86322 7.82969 -25.0395
LeftUpLeg  -28.3541 5.18299 19.4153
LeftLeg  48.0777 2.33777 3.22714
LeftFoot  -22.6008 -1.9615 -21.0777
LeftToes  -5.82109e-011 1.10366e-010 -8.03124e-011
362
root  20.5147 31.2081 25.7475 -166.228 8.79282 166.668
RightUpLeg  -52.7424 -19.5099 -37.6579
RightLeg  47.6977 -2.21723 -2.93656
RightFoot  1.6308 -4.50548 38.3271
RightToes  -1.74624e-010 0 -3.6325e-017
Spine  33.2087 -6.42005 26.6442
Spine1  -5.49974 4.5474 -12.7265
HEad  -37.347 2.71531 -15.7587
LeftShoulder1  1.57876 -4.12446 -13.742
LeftArm  23.9813 29.0592 -55.2608
LeftForeArm  76.5502 -79.5585 -81.4251
LeftHand  -1.571 -4.72145 18.149
RightShoulder  0.321342 -6.34378 -22.1953
RightArm  -72.0116 35.9935 -11.6859
RightForeArm  7.84161 52.7282 14.0113
RightHand  -2.28388 7.52092 -20.6328
LeftUpLeg  -30.1889 5.87434 18.7931
LeftLeg  47.51 0.648933 1.21444
LeftFoot  -20.8827 -1.77478 -22.4857
LeftToes  -5.82109e-011 1.10366e-010 -8.03124e-011
363
root  21.0194 31.3657 25.7563 -164.482 8.28925 166.142
RightUpLeg  -54.09 -19.0296 -37.7134
RightLeg  48.4155 -3.37496 -4.40005
RightFoot  1.26218 -4.39118 38.4301
RightToes  -1.74624e-010 0 -3.6325e-017
Spine  33.007 -6.92249 25.8463
Spine1  -5.47556 3.49073 -11.19
HEad  -38.73 5.04305 -16.6299
LeftShoulder1  1.66171 -4.77995 -13.0341
LeftArm  23.3076 27.4488 -55.4361
LeftForeArm  81.9521 -79.5597 -89.6803
LeftHand  -1.08118 -3.84746 13.8561
RightShoulder  0.488716 -7.59535 -23.1588
RightArm  -77.4013 38.8019 -10.6349
RightForeArm  9.30088 55.1561 15.5203
RightHand  -1.895 6.78819 -18.2585
LeftUpLeg  -31.9444 6.13315 18.6893
LeftLeg  46.3413 -2.89941 -2.82112
LeftFoot  -20.1183 -1.70464 -23.4618
LeftToes  -5.82109e-011 1.10366e-010 -8.03124e-011
364
root  21.3689 31.5831 25.7438 -164.053 7.16089 166.302
RightUpLeg  -53.6117 -18.2463 -37.5942
RightLeg  48.8682 -4.44706 -5.76978
RightFoot  1.38189 -4.38767 38.0679
RightToes  -1.74624e-010 0 -3.6325e-017
Spine  32.5948 -7.0909 24.9372
Spine1  -5.03995 2.81088 -10.6792
HEad  -38.9332 5.21407 -17.3823
LeftShoulder1  1.87239 -5.31995 -14.3194
LeftArm  21.3755 24.1543 -54.8469
LeftForeArm  74.7627 -79.3589 -86.0085
LeftHand  -0.956544 -3.05407 13.3699
RightShoulder  0.34799 -7.09185 -20.2126
RightArm  -75.2433 38.4127 -3.02153
RightForeArm  6.05895 52.2632 14.1066
RightHand  -1.83567 6.51581 -18.0721
LeftUpLeg  -32.5885 6.28605 19.0552
LeftLeg  45.9052 -6.52857 -6.76374
LeftFoot  -20.0969 -1.7664 -24.3011
LeftToes  -5.82109e-011 1.10366e-010 -8.03124e-011
365
root  21.5959 31.8345 25.6734 -164.882 6.16383 167.071
RightUpLeg  -51.6217 -16.9136 -37.0596
RightLeg  48.665 -4.94233 -6.32619
RightFoot  0.872242 -4.27416 38.5837
RightToes  -1.74624e-010 0 -3.6325e-017
Spine  32.4437 -6.99811 23.5955
Spine1  -4.12139 2.53284 -11.0976
HEad  -38.8409 4.52921 -17.7506
LeftShoulder1  2.05849 -5.42355 -16.3456
LeftArm  19.4093 20.583 -54.168
LeftForeArm  63.3784 -78.9946 -73.8315
LeftHand  -1.19214 -3.14577 16.3342
RightShoulder  0.0507322 -4.54433 -13.6632
RightArm  -67.0492 33.2309 5.56069
RightForeArm  2.22803 52.2233 14.4228
RightHand  -1.85474 6.35591 -18.4916
LeftUpLeg  -31.9224 6.79981 19.62
LeftLeg  46.2183 -8.15098 -8.59845
LeftFoot  -19.7815 -1.75636 -25.0315
LeftToes  -5.82109e-011 1.10366e-010 -8.03124e-011
366
root  21.7141 32.1247 25.521 -166.229 4.8571 168.092
RightUpLeg  -48.4894 -15.6599 -36.4261
RightLeg  47.8659 -5.32318 -6.59437
RightFoot  0.304042 -4.19849 39.6244
RightToes  -1.74624e-010 0 -3.6325e-017
Spine  31.7695 -6.72825 21.4352
Spine1  -2.41335 2.05377 -11.0141
HEad  -38.9301 3.91376 -17.6164
LeftShoulder1  2.0235 -4.85941 -17.5685
LeftArm  17.6502 18.254 -54.4342
LeftForeArm  57.0066 -78.4804 -64.9131
LeftHand  -1.53463 -3.33042 20.5232
RightShoulder  0.0468609 -1.99529 -5.8919
RightArm  -57.2428 26.3416 13.0384
RightForeArm  -1.39072 55.9342 16.9882
RightHand  -1.87332 5.88442 -19.4181
LeftUpLeg  -30.8799 7.45255 20.0535
LeftLeg  46.8638 -8.55717 -9.2477
LeftFoot  -19.2289 -1.66225 -25.3831
LeftToes  -5.82109e-011 1.10366e-010 -8.03124e-011
367
root  21.6072 32.4997 25.3281 -167.871 2.68599 169.242
RightUpLeg  -44.0605 -15.2812 -35.9191
RightLeg  46.2002 -6.1204 -7.09488
RightFoot  0.918493 -4.42347 39.694
RightToes  -1.74624e-010 0 -3.6325e-017
Spine  30.1157 -6.46115 18.8321
Spine1  0.371684 1.01575 -9.53093
HEad  -38.821 3.479 -17.1335
LeftShoulder1  1.76959 -3.75013 -17.7733
LeftArm  16.4244 16.9002 -55.803
LeftForeArm  56.6129 -78.4573 -65.0701
LeftHand  -1.7044 -3.0594 23.4177
RightShoulder  0.248693 -0.702194 0.708151
RightArm  -48.2988 19.7483 21.0626
RightForeArm  -3.12549 60.0251 20.3294
RightHand  -1.75359 5.21491 -19.3061
LeftUpLeg  -30.0991 7.18619 20.1233
LeftLeg  48.0945 -9.70382 -10.9797
LeftFoot  -18.9662 -1.61403 -25.5233
LeftToes  -5.82109e-011 1.10366e-010 -8.03124e-011
368
root  21.1641 33.0219 25.1528 -170.017 0.000991821 170.502
RightUpLeg  -37.874 -16.0357 -35.5978
RightLeg  42.4454 -6.88499 -6.99751
RightFoot  2.71957 -5.00324 39.2111
RightToes  -1.74624e-010 0 -3.6325e-017
Spine  28.2002 -6.27401 16.2196
Spine1  3.71929 -0.318943 -7.28412
HEad  -38.0044 3.31696 -16.2607
LeftShoulder1  1.47746 -2.57138 -17.6941
LeftArm  16.0803 15.5241 -57.7403
LeftForeArm  59.3026 -78.7607 -70.5498
LeftHand  -1.61404 -2.54602 23.5562
RightShoulder  0.438175 -0.324133 6.15022
RightArm  -40.6935 12.6978 29.1271
RightForeArm  -1.0077 64.3187 24.7748
RightHand  -1.59222 4.70239 -18.4525
LeftUpLeg  -29.132 5.59864 19.4455
LeftLeg  49.5125 -10.7029 -12.7057
LeftFoot  -18.6026 -1.53437 -25.5298
LeftToes  -5.82109e-011 1.10366e-010 -8.03124e-011
369
root  20.3914 33.7255 24.9936 -172.197 -1.97603 171.763
RightUpLeg  -30.6414 -17.195 -35.4918
RightLeg  35.4984 -7.37408 -5.88366
RightFoot  6.08071 -6.23472 39.3777
RightToes  -1.74624e-010 0 -3.6325e-017
Spine  26.6121 -5.82715 13.305
Spine1  6.58995 -1.41205 -5.05988
HEad  -36.3639 3.6063 -14.9301
LeftShoulder1  1.29782 -1.79168 -17.892
LeftArm  16.218 13.9864 -60.0291
LeftForeArm  61.7278 -78.9273 -74.1778
LeftHand  -1.3667 -1.90159 21.7611
RightShoulder  0.623119 -0.139041 11.4304
RightArm  -34.126 5.04222 35.3524
RightForeArm  4.23353 69.2689 32.235
RightHand  -1.52658 4.30459 -18.4182
LeftUpLeg  -27.3062 3.93866 17.666
LeftLeg  49.5278 -9.09592 -10.8243
LeftFoot  -17.9426 -1.33774 -24.6825
LeftToes  -5.82109e-011 1.10366e-010 -8.03124e-011
